PathFileType	4	(X/Y/Z)	/Users/itak/Documents/Research/Walk-IL/dataset/trc/00096_00006.trc
DataRate	CameraRate	NumFrames	NumMarkers	Units	OrigDataRate	OrigDataStartFrame	OrigNumFrames
100.000000	100.000000	4	53	mm	100.000000	324	519
Frame#	Time	RPSI			LPSI			L3			STRN			T10			C7			CLAV			RBAK			LBAK			LSHO			LUPA			LAEL			LAOL			LWTS			LWPS			LFRA			LIFD			LHPS			LHTS			RSHO			RUPA			RAEL			RAOL			RWTS			RWPS			RFRA			RIFD			RHTS			RHPS			RBHD			LFHD			RFHD			LBHD			LHIP			RHIP			RASI			LASI			LKNE			LTHI			LANK			LTIP			LTOE			LMT1			LMT5			LHEE			RKNE			RTHI			RANK			RTIP			RTOE			RMT1			RMT5			RHEE			
		X1	Y1	Z1	X2	Y2	Z2	X3	Y3	Z3	X4	Y4	Z4	X5	Y5	Z5	X6	Y6	Z6	X7	Y7	Z7	X8	Y8	Z8	X9	Y9	Z9	X10	Y10	Z10	X11	Y11	Z11	X12	Y12	Z12	X13	Y13	Z13	X14	Y14	Z14	X15	Y15	Z15	X16	Y16	Z16	X17	Y17	Z17	X18	Y18	Z18	X19	Y19	Z19	X20	Y20	Z20	X21	Y21	Z21	X22	Y22	Z22	X23	Y23	Z23	X24	Y24	Z24	X25	Y25	Z25	X26	Y26	Z26	X27	Y27	Z27	X28	Y28	Z28	X29	Y29	Z29	X30	Y30	Z30	X31	Y31	Z31	X32	Y32	Z32	X33	Y33	Z33	X34	Y34	Z34	X35	Y35	Z35	X36	Y36	Z36	X37	Y37	Z37	X38	Y38	Z38	X39	Y39	Z39	X40	Y40	Z40	X41	Y41	Z41	X42	Y42	Z42	X43	Y43	Z43	X44	Y44	Z44	X45	Y45	Z45	X46	Y46	Z46	X47	Y47	Z47	X48	Y48	Z48	X49	Y49	Z49	X50	Y50	Z50	X51	Y51	Z51	X52	Y52	Z52	X53	Y53	Z53	

325	3.24	-360.9425048828125	1014.027404785156	234.0601043701172	-244.3889923095703	1006.842102050781	107.8118362426758	-294.5502624511719	1075.082275390625	161.2041625976562	-118.5793609619141	1266.74951171875	353.8855285644531	-286.1909484863281	1204.0400390625	141.9505157470703	-243.4373168945312	1469.961669921875	189.1916656494141	-136.5647735595703	1381.690795898438	331.0702514648438	-341.9630126953125	1332.82470703125	182.4501342773438	-176.751708984375	1433.03173828125	108.9668960571289	-58.29512786865234	1439.395263671875	147.3827362060547	3.343364477157593	1318.476928710938	86.71975708007812	71.12511444091797	1113.160278320312	100.2871704101562	-31.16943359375	1078.826904296875	99.10432434082031	106.4630432128906	916.7396850585938	272.5184020996094	127.1085357666016	884.8030395507812	196.6612243652344	106.7246551513672	1014.040649414062	139.6433715820312	125.3400344848633	747.4711303710938	344.9676818847656	154.7255401611328	821.228759765625	248.2515106201172	136.0286712646484	847.1370849609375	312.0492858886719	-344.1855163574219	1430.722900390625	345.6490783691406	-403.1701965332031	1362.204467773438	370.3569030761719	-459.8270874023438	1104.165771484375	346.5945129394531	-370.5195922851562	1076.624145507812	309.92724609375	-374.7898864746094	840.9268188476562	435.4532470703125	-455.6246643066406	834.6207275390625	403.9279479980469	-465.3294677734375	1024.714721679688	358.1973876953125	-373.7465515136719	654.0194702148438	417.1887817382812	-370.8042297363281	738.043212890625	451.7093811035156	-446.6744079589844	742.9404907226562	433.4714660644531	-270.4076538085938	1628.767211914062	239.2005004882812	-102.1921157836914	1690.450073242188	370.9452209472656	-222.9950866699219	1672.128784179688	399.1490783691406	-140.7405090332031	1655.241943359375	200.0855255126953	-106.2547760009766	944.0413818359375	112.0541687011719	-367.0042724609375	948.358642578125	341.1296081542969	-260.2503356933594	968.6620483398438	409.2825012207031	-64.64405822753906	952.0462036132812	229.3071441650391	-136.4671630859375	480.6576538085938	172.6177368164062	-116.6769332885742	623.1548461914062	136.6887512207031	-273.4869384765625	49.858154296875	16.66425132751465	-199.9849548339844	254.8498992919922	80.00859832763672	-134.1595916748047	40.94191360473633	168.315185546875	-206.8810577392578	42.40312957763672	170.6955108642578	-175.4055786132812	35.18042373657227	61.85323333740234	-363.7933349609375	57.48724746704102	32.17190551757812	-205.8623962402344	520.3048095703125	459.8917846679688	-292.0927429199219	781.1582641601562	430.732421875	-119.509407043457	41.67490386962891	491.63037109375	-192.0493621826172	400.3796997070312	470.13671875	7.348616600036621	131.0941467285156	634.1826782226562	13.93044471740723	107.6530303955078	570.3131103515625	-79.12572479248047	88.95491790771484	595.666748046875	-94.74826049804688	34.85990524291992	423.7457275390625	
326	3.25	-355.1061096191406	1012.489440917969	239.4635009765625	-237.9333953857422	1005.523681640625	114.0865707397461	-288.8359985351562	1073.619995117188	166.862548828125	-114.6355133056641	1265.35595703125	361.2406005859375	-280.1679382324219	1202.531616210938	147.595947265625	-238.1595764160156	1468.492065429688	195.2546997070312	-132.561279296875	1380.279907226562	338.2560119628906	-336.2866821289062	1331.22314453125	187.4606018066406	-170.5022583007812	1431.527709960938	115.8319549560547	-52.50082778930664	1438.117553710938	155.3750762939453	9.875899314880371	1317.418090820312	95.15222930908203	78.31015014648438	1112.35009765625	109.0468215942383	-23.79454040527344	1077.54638671875	106.826904296875	112.4607391357422	916.37255859375	281.8863220214844	134.0702514648438	884.3798217773438	206.2799835205078	113.8511581420898	1013.423461914062	148.8758087158203	131.1569519042969	747.3392333984375	354.8904418945312	161.2659149169922	820.947998046875	258.3309020996094	141.8232421875	846.9581909179688	321.8892822265625	-340.3845825195312	1428.991333007812	350.6997680664062	-399.5278625488281	1360.395385742188	374.6746826171875	-456.1532897949219	1102.527587890625	349.5090942382812	-366.3843994140625	1074.93212890625	313.843994140625	-372.92626953125	838.67041015625	438.2506408691406	-453.4658813476562	832.8863525390625	405.9096374511719	-461.9425354003906	1023.177978515625	360.7516479492188	-372.5502624511719	651.8480224609375	419.0632934570312	-369.5465087890625	735.6638793945312	454.011474609375	-445.2678527832031	741.0319213867188	435.0699462890625	-265.833251953125	1627.124267578125	245.0976257324219	-98.69715881347656	1689.318969726562	377.9773864746094	-219.6943511962891	1670.842163085938	405.2553405761719	-135.9488677978516	1653.733154296875	206.8744506835938	-99.79512786865234	942.8806762695312	119.3474502563477	-362.5821533203125	946.7308959960938	346.243896484375	-256.4048767089844	967.2258911132812	415.3573608398438	-59.25069046020508	950.6292724609375	237.0556793212891	-133.4119415283203	479.591064453125	176.8030700683594	-112.5526580810547	622.1688232421875	142.0266876220703	-273.0217895507812	50.79439544677734	16.70918273925781	-198.2347869873047	254.8832855224609	81.91093444824219	-134.1346130371094	40.83967208862305	168.2817993164062	-206.7843475341797	42.40180587768555	170.6806030273438	-175.1553802490234	35.207275390625	61.92013168334961	-363.3453369140625	59.06229019165039	31.98587989807129	-200.9578247070312	518.7864379882812	464.6358947753906	-288.0278930664062	779.385009765625	436.09326171875	-110.9117431640625	40.91057586669922	498.6197509765625	-186.6844482421875	399.018798828125	475.1938171386719	13.26917266845703	131.4909973144531	642.86083984375	20.89843559265137	108.2179336547852	579.0069580078125	-72.34629821777344	88.56044006347656	603.1306762695312	-85.25811004638672	34.34734725952148	431.0354919433594	
327	3.26	-349.2381896972656	1010.996276855469	245.0095825195312	-231.4593811035156	1004.326538085938	120.5393753051758	-283.053466796875	1072.166748046875	172.7000579833984	-110.7302627563477	1264.029418945312	368.7684020996094	-274.0881652832031	1201.044311523438	153.4276275634766	-232.9502105712891	1467.042846679688	201.4488983154297	-128.6130218505859	1378.92626953125	345.5891723632812	-330.6318359375	1329.620849609375	192.6304473876953	-164.3062591552734	1430.097045898438	122.8694839477539	-46.77613067626953	1436.86181640625	163.5119781494141	16.28117370605469	1316.363647460938	103.7339096069336	85.21365356445312	1111.492553710938	117.8193206787109	-16.68389511108398	1076.324584960938	114.6120223999023	118.1986923217773	915.8948974609375	291.1556091308594	140.7112884521484	883.880859375	215.7867889404297	120.6680297851562	1012.752014160156	158.0686798095703	136.7105102539062	747.0789184570312	364.6521911621094	167.4832458496094	820.5453491210938	268.2433471679688	147.3701324462891	846.6497192382812	331.5757141113281	-336.6193542480469	1427.305786132812	355.8761901855469	-395.9672546386719	1358.609497070312	379.0826110839844	-452.4219360351562	1100.90234375	352.6089782714844	-362.1426391601562	1073.267822265625	317.9720458984375	-370.9225463867188	836.4806518554688	441.2368774414062	-451.182861328125	831.190673828125	408.0860595703125	-458.4627685546875	1021.666809082031	363.5143432617188	-371.1937866210938	649.7353515625	421.1573486328125	-368.1499328613281	733.3583984375	456.5187072753906	-443.7169189453125	739.1719360351562	436.8759765625	-261.3482666015625	1625.546630859375	251.1149749755859	-95.23818206787109	1688.23681640625	385.0747680664062	-216.4182891845703	1669.615356445312	411.4530334472656	-131.2258605957031	1652.270385742188	213.7458190917969	-93.33740234375	941.796630859375	126.8198394775391	-358.1597595214844	945.1494750976562	351.4676208496094	-252.6023712158203	965.8136596679688	421.5875244140625	-53.8306999206543	949.2684326171875	244.9906158447266	-130.3177642822266	478.6080017089844	181.1420288085938	-108.3935317993164	621.2525024414062	147.5061340332031	-272.4613952636719	51.91317749023438	16.76352882385254	-196.3884582519531	255.0450897216797	83.86669158935547	-134.1108551025391	40.74662780761719	168.2527008056641	-206.6570739746094	42.41174697875977	170.6591339111328	-174.8676910400391	35.27358245849609	62.00870132446289	-362.8143615722656	60.85049819946289	31.79322814941406	-195.7960510253906	517.489990234375	469.8644104003906	-283.7119750976562	777.7918090820312	441.6959533691406	-103.5360336303711	39.86894607543945	504.1146240234375	-181.2714233398438	397.5925903320312	480.3854064941406	18.5666389465332	130.6966705322266	650.0097045898438	27.04305458068848	107.7521057128906	586.105712890625	-66.39429473876953	87.37469482421875	609.1585693359375	-77.12169647216797	33.65774536132812	436.7866516113281	
328	3.27	-343.3413391113281	1009.55810546875	250.7279510498047	-224.9779205322266	1003.271362304688	127.1827392578125	-277.2074279785156	1070.73583984375	178.7332153320312	-106.8677825927734	1262.787963867188	376.4722595214844	-267.9573974609375	1199.585205078125	159.4527893066406	-227.8070831298828	1465.627807617188	207.7817077636719	-124.7257995605469	1377.646728515625	353.0751037597656	-325.0034790039062	1328.026489257812	197.9667205810547	-158.1615295410156	1428.753784179688	130.070556640625	-41.12730026245117	1435.642578125	171.8020324707031	22.55141067504883	1315.33203125	112.4754409790039	91.83218383789062	1110.611572265625	126.6086196899414	-9.856681823730469	1075.185791015625	122.4730682373047	123.6895599365234	915.3113403320312	300.3198852539062	147.0213317871094	883.30859375	225.1746368408203	127.1731872558594	1012.038696289062	167.2160186767578	141.9885864257812	746.678955078125	374.2244567871094	173.3772888183594	820.0203247070312	277.9717102050781	152.6739044189453	846.2052001953125	341.0906982421875	-332.9042663574219	1425.683471679688	361.1764526367188	-392.48388671875	1356.876098632812	383.5903015136719	-448.6161499023438	1099.306396484375	355.8948059082031	-357.7843627929688	1071.654663085938	322.3172607421875	-368.7889099121094	834.3771362304688	444.4295959472656	-448.7788391113281	829.55322265625	410.4551391601562	-454.8777465820312	1020.195861816406	366.4853210449219	-369.6784973144531	647.6991577148438	423.4881286621094	-366.6325073242188	731.1544189453125	459.2462768554688	-442.0191650390625	737.377197265625	438.8971557617188	-256.9545288085938	1624.054931640625	257.2550354003906	-91.81707763671875	1687.212890625	392.2345581054688	-213.1677551269531	1668.467041015625	417.7468566894531	-126.5750198364258	1650.8701171875	220.6969146728516	-86.89606475830078	940.8052978515625	134.4621734619141	-353.7126159667969	943.6214599609375	356.8167114257812	-248.7756042480469	964.4354248046875	427.9879455566406	-48.38009262084961	947.9903564453125	253.0841827392578	-127.1403045654297	477.7010498046875	185.6851501464844	-104.1605834960938	620.4066162109375	153.1615753173828	-271.8040466308594	53.22700500488281	16.83304977416992	-194.4223022460938	255.3428802490234	85.89175415039062	-134.0822296142578	40.6605110168457	168.2301177978516	-206.4876861572266	42.43822860717773	170.6319427490234	-174.5462036132812	35.38266754150391	62.11806488037109	-362.1925048828125	62.87491226196289	31.60712432861328	-190.4359741210938	516.3775024414062	475.5496520996094	-279.1501770019531	776.3731689453125	447.5648803710938	-97.35744476318359	38.57381057739258	508.2228698730469	-175.81640625	396.0979309082031	485.7104797363281	23.39981460571289	128.7225646972656	655.6447143554688	32.47469711303711	106.2413787841797	591.6343383789062	-61.14761734008789	85.42422485351562	613.8322143554688	-70.35866546630859	32.78791809082031	441.086669921875	
